<svg width="32" height="42" viewBox="0 0 32 42" fill="none" xmlns="http://www.w3.org/2000/svg">
<path d="M1.97199 1.47668C1.09554 1.47668 0.267822 2.3044 0.267822 3.18085V38.9684C0.267822 39.7961 1.14428 40.6725 1.97199 40.6725H29.2387C30.0664 40.6725 30.9428 39.7961 30.9428 38.9684V12.5538L19.8657 1.47668H1.97199Z" fill="#D41A1A"/>
<mask id="mask0_0_1843" style="mask-type:luminance" maskUnits="userSpaceOnUse" x="19" y="0" width="13" height="14">
<path d="M19.1764 0.786377L31.9989 13.6089H21.1491C20.1909 13.6089 19.1764 12.5943 19.1764 11.6362V0.786377Z" fill="white"/>
</mask>
<g mask="url(#mask0_0_1843)">
<g filter="url(#filter0_f_0_1843)">
<path d="M19.7686 1.74255L30.8456 12.8196H21.4727C20.645 12.8196 19.7686 11.9432 19.7686 11.1155V1.74255Z" fill="black" fill-opacity="0.392"/>
</g>
</g>
<path d="M19.8673 1.47681L30.9444 12.5539H21.5715C20.7437 12.5539 19.8673 11.6774 19.8673 10.8497V1.47681Z" fill="#E55A5A"/>
<path d="M12.0975 11.8241C11.0942 11.8065 10.2282 12.8045 10.4404 13.8015C10.5832 15.325 11.5655 16.5613 12.3321 17.8193C12.4183 18.2877 12.1712 18.7438 12.1546 19.2088C11.6549 21.9393 10.8924 24.6551 9.71934 27.1606C8.26784 27.8288 6.62399 28.4887 5.77517 29.9289C5.23634 30.9282 5.99503 32.2768 7.10871 32.3822C8.1419 32.5235 8.90879 31.6381 9.47358 30.8962C10.0633 30.0983 10.4514 29.1481 10.942 28.2906C13.9114 27.0947 17.0353 26.259 20.2242 25.9416C21.5136 26.8644 22.8797 27.9531 24.5331 28.0189C25.4942 28.0046 26.2719 27.0717 26.1666 26.1241C26.1046 25.2614 25.3382 24.6564 24.5442 24.4945C23.2636 24.1088 21.8918 24.32 20.5892 24.3294C18.0825 22.3264 15.7684 20.0218 13.9456 17.385C14.0809 15.7819 14.3525 14.0086 13.5178 12.5502C13.2008 12.0902 12.6636 11.7745 12.0975 11.8241ZM12.1453 13.2804C12.4275 13.3348 12.4463 13.7552 12.5253 13.98C12.5997 14.4382 12.5915 14.9058 12.5861 15.3685C12.25 14.7402 11.8134 14.0839 11.8912 13.3392C11.9797 13.3353 12.0582 13.2907 12.1453 13.2804ZM13.7007 19.5323C15.1947 21.3899 16.8542 23.1007 18.6653 24.6515C16.2772 25.0157 13.9048 25.6258 11.6327 26.4489C12.5041 24.1714 13.1676 21.8185 13.6047 19.4171C13.6366 19.4555 13.6688 19.4938 13.7007 19.5323ZM23.0195 25.7771C23.5988 25.8329 24.2673 25.7994 24.7311 26.1986C24.7746 26.559 24.3338 26.6115 24.0991 26.4811C23.6094 26.3176 23.1249 26.1121 22.7092 25.7988C22.8127 25.7919 22.9156 25.7791 23.0195 25.7771ZM8.54431 29.5666C8.26887 30.0789 7.86788 30.5619 7.44973 30.9247C7.31058 31.15 6.92869 30.7335 7.10441 30.5575C7.4672 29.9896 8.10065 29.6886 8.66135 29.3494C8.62225 29.4218 8.58349 29.4942 8.54431 29.5666Z" fill="white"/>
<defs>
<filter id="filter0_f_0_1843" x="19.2709" y="1.24492" width="12.0723" height="12.0723" filterUnits="userSpaceOnUse" color-interpolation-filters="sRGB">
<feFlood flood-opacity="0" result="BackgroundImageFix"/>
<feBlend mode="normal" in="SourceGraphic" in2="BackgroundImageFix" result="shape"/>
<feGaussianBlur stdDeviation="0.248815" result="effect1_foregroundBlur_0_1843"/>
</filter>
</defs>
</svg>
