<svg width="13" height="13" viewBox="0 0 13 13" fill="none" xmlns="http://www.w3.org/2000/svg">
<path d="M6.82921 12.7692C5.80175 12.7692 4.89029 12.6283 4.09484 12.3466C3.3027 12.0682 2.63485 11.6572 2.09129 11.1136C1.54773 10.5734 1.13508 9.91051 0.85336 9.125C0.571637 8.33949 0.430775 7.44294 0.430775 6.43537C0.430775 5.45431 0.573294 4.57268 0.858332 3.79048C1.14337 3.00829 1.55767 2.34209 2.10123 1.7919C2.6481 1.2384 3.31264 0.815814 4.09484 0.524147C4.87703 0.232481 5.76529 0.0866473 6.75961 0.0866473C7.71084 0.0866473 8.54938 0.235795 9.27524 0.534091C10.0011 0.832386 10.6109 1.24171 11.1048 1.76207C11.6019 2.28243 11.9765 2.87902 12.2284 3.55185C12.4803 4.22467 12.6062 4.93561 12.6062 5.68466C12.6062 6.20833 12.5731 6.72041 12.5068 7.22088C12.4405 7.71804 12.3178 8.1688 12.1389 8.57315C11.9632 8.9742 11.708 9.29569 11.3732 9.53764C11.0418 9.77628 10.6109 9.90057 10.0806 9.91051C9.79891 9.92045 9.52547 9.88731 9.26032 9.81108C8.99517 9.73485 8.76979 9.61222 8.58418 9.44318C8.39858 9.27083 8.28589 9.05208 8.24612 8.78693H8.18646C8.10691 8.98248 7.97434 9.16477 7.78873 9.33381C7.60312 9.49953 7.36614 9.6321 7.07779 9.73153C6.79275 9.82765 6.46132 9.86742 6.08347 9.85085C5.66586 9.83428 5.28968 9.73982 4.95492 9.56747C4.62017 9.39512 4.33347 9.15649 4.09484 8.85156C3.85952 8.54664 3.67888 8.18537 3.55293 7.76776C3.42699 7.35014 3.36401 6.88613 3.36401 6.37571C3.36401 5.88518 3.43527 5.44602 3.57779 5.05824C3.72031 4.66714 3.9142 4.33073 4.15947 4.04901C4.40805 3.76397 4.69309 3.53859 5.01458 3.37287C5.33608 3.20715 5.6758 3.10275 6.03376 3.05966C6.38177 3.01989 6.70161 3.02983 6.99328 3.08949C7.28494 3.14915 7.52689 3.24029 7.71913 3.36293C7.91468 3.48556 8.03731 3.61979 8.08703 3.76562H8.15166V3.20881H9.37467V7.82244C9.37467 8.08428 9.44261 8.30634 9.5785 8.48864C9.71771 8.67093 9.91491 8.76207 10.1701 8.76207C10.4717 8.76207 10.7071 8.65104 10.8761 8.42898C11.0484 8.20691 11.1694 7.86553 11.239 7.40483C11.3119 6.94413 11.3484 6.35417 11.3484 5.63494C11.3484 5.13116 11.2804 4.6572 11.1446 4.21307C11.012 3.76562 10.8148 3.36127 10.5529 3C10.2944 2.63542 9.97623 2.32221 9.59839 2.06037C9.22055 1.79853 8.78968 1.59635 8.30578 1.45383C7.82519 1.31132 7.29323 1.24006 6.70989 1.24006C5.91775 1.24006 5.21345 1.36269 4.59697 1.60795C3.98049 1.8499 3.46013 2.19957 3.03589 2.65696C2.61496 3.11435 2.29512 3.66288 2.07637 4.30256C1.86094 4.93892 1.75322 5.65317 1.75322 6.44531C1.75322 7.2706 1.86425 8.00308 2.08631 8.64276C2.30838 9.27912 2.6365 9.81605 3.07069 10.2536C3.50488 10.6911 4.04181 11.0225 4.68149 11.2479C5.32116 11.4766 6.05862 11.5909 6.89384 11.5909C7.26506 11.5909 7.62964 11.5578 7.98759 11.4915C8.34555 11.4285 8.66373 11.3556 8.94214 11.2727C9.22386 11.1932 9.43433 11.1286 9.57353 11.0788L9.92154 12.1676C9.71605 12.2637 9.44261 12.3582 9.10123 12.451C8.76316 12.5438 8.39526 12.62 7.99754 12.6797C7.60312 12.7393 7.21368 12.7692 6.82921 12.7692ZM6.37183 8.63281C6.8027 8.63281 7.14905 8.54664 7.41089 8.37429C7.67604 8.20194 7.86662 7.94508 7.98262 7.60369C8.10194 7.259 8.1616 6.82812 8.1616 6.31108C8.15828 5.80729 8.09365 5.40625 7.96771 5.10795C7.84507 4.80634 7.65284 4.59091 7.391 4.46165C7.13248 4.32907 6.79938 4.26278 6.39171 4.26278C6.01719 4.26278 5.69735 4.35393 5.4322 4.53622C5.17036 4.71851 4.96984 4.96544 4.83063 5.27699C4.69474 5.58854 4.62514 5.9349 4.62183 6.31605C4.62514 6.71709 4.68149 7.09493 4.79086 7.44957C4.90355 7.8009 5.08584 8.08594 5.33774 8.30469C5.59294 8.52344 5.93764 8.63281 6.37183 8.63281Z" fill="#475467"/>
</svg>
