<svg width="20" height="20" viewBox="0 0 20 20" fill="none" xmlns="http://www.w3.org/2000/svg">
<path d="M18.3333 6.50831V13.4916C18.3333 16.1666 16.1666 18.3333 13.4916 18.3333H6.50829C3.83329 18.3333 1.66663 16.1666 1.66663 13.4916V6.50831C1.66663 4.43331 2.51663 2.92498 4.02496 2.19165C4.57496 1.92498 5.20829 2.34165 5.20829 2.94998V10.35C5.20829 11.3416 5.59163 12.1333 6.28329 12.5333C6.98329 12.925 7.86663 12.8416 8.76663 12.3L9.84996 11.65C9.91663 11.6166 10.0833 11.6166 10.1333 11.6416L11.2333 12.3C11.8333 12.6583 12.35 12.775 12.7666 12.775C13.2 12.775 13.5333 12.6416 13.7333 12.525C14.4083 12.1333 14.7916 11.3416 14.7916 10.35V2.94998C14.7916 2.34165 15.4333 1.92498 15.975 2.19165C17.4833 2.92498 18.3333 4.43331 18.3333 6.50831Z" fill="#1C77FF"/>
<path d="M12.7084 1.66663C13.1667 1.66663 13.5417 2.04163 13.5417 2.49996V10.35C13.5417 10.8833 13.3834 11.2833 13.1084 11.4416C12.825 11.6083 12.375 11.525 11.875 11.225L10.775 10.5666C10.35 10.3083 9.65004 10.3083 9.22504 10.5666L8.12504 11.225C7.62504 11.525 7.17504 11.6 6.89171 11.4416C6.61671 11.2833 6.45837 10.8833 6.45837 10.35V2.49996C6.45837 2.04163 6.83337 1.66663 7.29171 1.66663H12.7084Z" fill="#1C77FF"/>
</svg>
