<svg width="24" height="24" viewBox="0 0 24 24" fill="none" xmlns="http://www.w3.org/2000/svg">
<g clip-path="url(#clip0_0_2011)">
<path d="M11.9999 1.33331C9.89026 1.33331 7.82797 1.9589 6.07384 3.13097C4.31972 4.30304 2.95254 5.96894 2.14521 7.91802C1.33787 9.8671 1.12664 12.0118 1.53821 14.0809C1.94979 16.1501 2.96569 18.0507 4.45745 19.5425C5.94921 21.0342 7.84983 22.0501 9.91896 22.4617C11.9881 22.8733 14.1328 22.662 16.0819 21.8547C18.031 21.0474 19.6969 19.6802 20.8689 17.9261C22.041 16.1719 22.6666 14.1096 22.6666 12C22.6666 9.171 21.5428 6.4579 19.5424 4.45751C17.542 2.45712 14.8289 1.33331 11.9999 1.33331ZM11.9999 21.3333C10.154 21.3333 8.34946 20.7859 6.8146 19.7604C5.27974 18.7348 4.08347 17.2771 3.37705 15.5717C2.67063 13.8662 2.4858 11.9896 2.84593 10.1791C3.20606 8.36865 4.09497 6.70561 5.40026 5.40032C6.70555 4.09503 8.36859 3.20611 10.1791 2.84598C11.9896 2.48586 13.8662 2.67069 15.5716 3.3771C17.2771 4.08352 18.7347 5.2798 19.7603 6.81466C20.7859 8.34952 21.3333 10.154 21.3333 12C21.3333 14.4753 20.3499 16.8493 18.5996 18.5996C16.8492 20.35 14.4753 21.3333 11.9999 21.3333Z" fill="#344054"/>
<path d="M12.1934 5.94666C11.471 5.93472 10.7548 6.08204 10.0957 6.37816C9.43666 6.67427 8.8509 7.11192 8.38008 7.65999C8.31467 7.72061 8.26209 7.79373 8.22544 7.87504C8.1888 7.95634 8.16884 8.04417 8.16675 8.13332C8.1667 8.21558 8.18321 8.297 8.21527 8.37275C8.24734 8.4485 8.29431 8.51702 8.3534 8.57424C8.41249 8.63146 8.48249 8.67622 8.55922 8.70584C8.63596 8.73546 8.71787 8.74934 8.80008 8.74666C8.9762 8.74229 9.1446 8.6735 9.27341 8.55332C9.62972 8.13578 10.0723 7.80038 10.5706 7.57021C11.0689 7.34004 11.6112 7.22056 12.1601 7.21999C13.7334 7.21999 14.7134 8.23332 14.7134 9.49332V9.52666C14.7134 11 13.5401 11.82 11.6867 11.96C11.6117 11.9629 11.5381 11.9816 11.4708 12.0149C11.4035 12.0482 11.344 12.0954 11.2961 12.1533C11.2483 12.2112 11.2132 12.2785 11.1932 12.3509C11.1732 12.4233 11.1688 12.4991 11.1801 12.5733C11.1801 12.5733 11.1801 14.12 11.1801 14.4067C11.1967 14.5717 11.2742 14.7246 11.3974 14.8355C11.5207 14.9465 11.6809 15.0075 11.8467 15.0067H11.9201C12.0851 14.9901 12.238 14.9126 12.349 14.7893C12.4599 14.666 12.5209 14.5058 12.5201 14.34V12.9667C14.5201 12.6867 16.1401 11.6333 16.1401 9.44666V9.41332C16.1201 7.41332 14.5601 5.94666 12.1934 5.94666Z" fill="#344054"/>
<path d="M11.8534 18.3C12.3136 18.3 12.6867 17.9269 12.6867 17.4667C12.6867 17.0065 12.3136 16.6334 11.8534 16.6334C11.3931 16.6334 11.02 17.0065 11.02 17.4667C11.02 17.9269 11.3931 18.3 11.8534 18.3Z" fill="#344054"/>
</g>
<defs>
<clipPath id="clip0_0_2011">
<rect width="24" height="24" fill="white"/>
</clipPath>
</defs>
</svg>
