<svg width="21" height="21" viewBox="0 0 21 21" fill="none" xmlns="http://www.w3.org/2000/svg">
<path d="M18.2574 14.7549C17.6371 14.1299 16.1347 13.2178 15.4058 12.8502C14.4566 12.3721 14.3785 12.333 13.6324 12.8873C13.1347 13.2573 12.8038 13.5877 12.2214 13.4635C11.639 13.3393 10.3734 12.6389 9.26518 11.5342C8.15697 10.4295 7.41596 9.12718 7.29135 8.54671C7.16674 7.96624 7.50268 7.63929 7.86908 7.14046C8.38549 6.43734 8.34643 6.32015 7.90502 5.37093C7.56088 4.63265 6.62221 3.14437 5.99486 2.52718C5.32377 1.86429 5.32377 1.98148 4.89135 2.16116C4.53931 2.30928 4.20157 2.48933 3.88236 2.69905C3.25736 3.11429 2.91049 3.45921 2.66791 3.97757C2.42533 4.49593 2.31635 5.71116 3.56908 7.98695C4.82182 10.2627 5.70072 11.4264 7.51986 13.2405C9.339 15.0545 10.7378 16.0299 12.7828 17.1768C15.3124 18.5936 16.2828 18.3174 16.8027 18.0752C17.3226 17.833 17.6691 17.4893 18.0851 16.8643C18.2954 16.5456 18.4758 16.2083 18.6242 15.8565C18.8042 15.4256 18.9214 15.4256 18.2574 14.7549Z" stroke="#344054" stroke-width="1.5" stroke-miterlimit="10"/>
</svg>
