<svg width="20" height="20" viewBox="0 0 20 20" fill="none" xmlns="http://www.w3.org/2000/svg">
<path fill-rule="evenodd" clip-rule="evenodd" d="M5.83337 9.99998C5.83337 9.08081 5.08587 8.33331 4.16671 8.33331C3.24754 8.33331 2.50004 9.08081 2.50004 9.99998C2.50004 10.9191 3.24754 11.6666 4.16671 11.6666C5.08587 11.6666 5.83337 10.9191 5.83337 9.99998Z" fill="#475467"/>
<path fill-rule="evenodd" clip-rule="evenodd" d="M14.1667 9.99998C14.1667 10.9191 14.9142 11.6666 15.8333 11.6666C16.7525 11.6666 17.5 10.9191 17.5 9.99998C17.5 9.08081 16.7525 8.33331 15.8333 8.33331C14.9142 8.33331 14.1667 9.08081 14.1667 9.99998Z" fill="#475467"/>
<path fill-rule="evenodd" clip-rule="evenodd" d="M11.6666 9.99998C11.6666 9.08081 10.9191 8.33331 9.99996 8.33331C9.08079 8.33331 8.33329 9.08081 8.33329 9.99998C8.33329 10.9191 9.08079 11.6666 9.99996 11.6666C10.9191 11.6666 11.6666 10.9191 11.6666 9.99998Z" fill="#475467"/>
</svg>
