<svg width="21" height="21" viewBox="0 0 21 21" fill="none" xmlns="http://www.w3.org/2000/svg">
<path d="M7.44316 16.3333H7.02649C3.69316 16.3333 2.02649 15.5 2.02649 11.3333V7.16663C2.02649 3.83329 3.69316 2.16663 7.02649 2.16663H13.6932C17.0265 2.16663 18.6932 3.83329 18.6932 7.16663V11.3333C18.6932 14.6666 17.0265 16.3333 13.6932 16.3333H13.2765C13.0182 16.3333 12.7682 16.4583 12.6098 16.6666L11.3598 18.3333C10.8098 19.0666 9.90982 19.0666 9.35982 18.3333L8.10982 16.6666C7.97649 16.4833 7.66816 16.3333 7.44316 16.3333Z" stroke="#344054" stroke-width="1.5" stroke-miterlimit="10" stroke-linecap="round" stroke-linejoin="round"/>
<path d="M6.19324 7.16663H14.5266" stroke="#344054" stroke-width="1.5" stroke-linecap="round" stroke-linejoin="round"/>
<path d="M6.19324 11.3334H11.1932" stroke="#344054" stroke-width="1.5" stroke-linecap="round" stroke-linejoin="round"/>
</svg>
