<svg width="16" height="16" viewBox="0 0 16 16" fill="none" xmlns="http://www.w3.org/2000/svg">
<path d="M13.7988 10.1331L10.8475 8.81248C10.7331 8.76297 10.6082 8.74275 10.484 8.75366C10.3598 8.76458 10.2403 8.80627 10.1363 8.87498C10.1279 8.88025 10.12 8.8861 10.1125 8.89248L8.56251 10.2137C8.52801 10.2348 8.48886 10.247 8.44853 10.2493C8.40819 10.2516 8.36791 10.2439 8.33126 10.2269C7.31626 9.73686 6.26563 8.69435 5.77563 7.69123C5.7583 7.65485 5.75025 7.61475 5.75222 7.5745C5.75418 7.53425 5.76609 7.49512 5.78688 7.46061L7.11188 5.88498C7.11813 5.87748 7.12376 5.86936 7.12938 5.86123C7.19788 5.75736 7.23945 5.63807 7.25036 5.51413C7.26127 5.39018 7.24118 5.26547 7.19188 5.15123L5.86876 2.20498C5.80488 2.05576 5.69432 1.93129 5.55367 1.85026C5.41303 1.76923 5.24989 1.73602 5.08876 1.7556C4.30224 1.8593 3.58036 2.24577 3.05796 2.84281C2.53556 3.43986 2.24836 4.20666 2.25001 4.99998C2.25001 9.82498 6.17501 13.75 11 13.75C11.7933 13.7516 12.5601 13.4644 13.1572 12.942C13.7542 12.4196 14.1407 11.6977 14.2444 10.9112C14.2638 10.7508 14.231 10.5884 14.1507 10.4482C14.0704 10.308 13.9469 10.1975 13.7988 10.1331ZM13.75 10.8487C13.6617 11.5148 13.3339 12.126 12.8278 12.5679C12.3217 13.0098 11.6719 13.2523 11 13.25C6.45126 13.25 2.75001 9.54873 2.75001 4.99998C2.74768 4.32807 2.99015 3.67832 3.43209 3.1722C3.87402 2.66607 4.48517 2.33824 5.15126 2.24998C5.16125 2.24936 5.17127 2.24936 5.18126 2.24998C5.23058 2.2504 5.27867 2.2654 5.31949 2.29309C5.3603 2.32078 5.39201 2.35993 5.41063 2.40561L6.73001 5.35185C6.7454 5.38786 6.75212 5.42699 6.74962 5.46607C6.74713 5.50515 6.73548 5.5431 6.71563 5.57686L5.39126 7.15185C5.38501 7.15998 5.37876 7.16748 5.37313 7.17623C5.30257 7.28413 5.26102 7.40839 5.25248 7.53703C5.24394 7.66566 5.26871 7.79433 5.32438 7.91061C5.86751 9.02248 6.98751 10.1344 8.11188 10.6775C8.22895 10.7328 8.35835 10.7569 8.48748 10.7473C8.61661 10.7378 8.74107 10.695 8.84876 10.6231L8.87188 10.6056L10.4238 9.28561C10.457 9.26532 10.4945 9.25322 10.5333 9.25028C10.5721 9.24735 10.611 9.25367 10.6469 9.26873L13.5975 10.5912C13.6473 10.612 13.6891 10.6482 13.7165 10.6946C13.744 10.741 13.7558 10.7951 13.75 10.8487Z" fill="#475467"/>
</svg>
