<svg width="25" height="24" viewBox="0 0 25 24" fill="none" xmlns="http://www.w3.org/2000/svg">
<path d="M7.09998 17H11.1C11.3833 17 11.621 16.904 11.813 16.712C12.005 16.52 12.1006 16.2827 12.1 16C12.1 15.7167 12.004 15.4793 11.812 15.288C11.62 15.0967 11.3826 15.0007 11.1 15H7.09998C6.81664 15 6.57931 15.096 6.38798 15.288C6.19664 15.48 6.10064 15.7173 6.09998 16C6.09998 16.2833 6.19598 16.521 6.38798 16.713C6.57998 16.905 6.81731 17.0007 7.09998 17ZM10.1 13H14.1C14.3833 13 14.621 12.904 14.813 12.712C15.005 12.52 15.1006 12.2827 15.1 12C15.1 11.7167 15.004 11.4793 14.812 11.288C14.62 11.0967 14.3826 11.0007 14.1 11H10.1C9.81664 11 9.57931 11.096 9.38798 11.288C9.19664 11.48 9.10064 11.7173 9.09998 12C9.09998 12.2833 9.19598 12.521 9.38798 12.713C9.57998 12.905 9.81731 13.0007 10.1 13ZM13.1 9H17.1C17.3833 9 17.621 8.904 17.813 8.712C18.005 8.52 18.1006 8.28267 18.1 8C18.1 7.71667 18.004 7.47933 17.812 7.288C17.62 7.09667 17.3826 7.00067 17.1 7H13.1C12.8166 7 12.5793 7.096 12.388 7.288C12.1966 7.48 12.1006 7.71733 12.1 8C12.1 8.28333 12.196 8.521 12.388 8.713C12.58 8.905 12.8173 9.00067 13.1 9ZM5.09998 21C4.54998 21 4.07931 20.8043 3.68798 20.413C3.29664 20.0217 3.10064 19.5507 3.09998 19V5C3.09998 4.45 3.29598 3.97933 3.68798 3.588C4.07998 3.19667 4.55064 3.00067 5.09998 3H19.1C19.65 3 20.121 3.196 20.513 3.588C20.905 3.98 21.1006 4.45067 21.1 5V19C21.1 19.55 20.9043 20.021 20.513 20.413C20.1216 20.805 19.6506 21.0007 19.1 21H5.09998ZM5.09998 19H19.1V5H5.09998V19Z" fill="#475467"/>
</svg>
