<svg width="16" height="16" viewBox="0 0 16 16" fill="none" xmlns="http://www.w3.org/2000/svg">
<g clip-path="url(#clip0_0_1727)">
<path d="M8.00004 14.6667C11.682 14.6667 14.6667 11.682 14.6667 8.00004C14.6667 4.31804 11.682 1.33337 8.00004 1.33337C4.31804 1.33337 1.33337 4.31804 1.33337 8.00004C1.33337 11.682 4.31804 14.6667 8.00004 14.6667Z" stroke="#475467"/>
<path d="M1.33337 6.94671C2.33837 6.47238 3.08171 6.40604 3.56337 6.74838C4.28571 7.26171 4.37604 9.35471 6.01937 8.35471C7.66237 7.35438 5.31571 6.94671 5.82504 5.49804C6.33437 4.04904 8.00271 5.17471 8.16837 3.58771C8.27904 2.52971 7.01371 2.12471 4.37171 2.37304" stroke="#475467"/>
<path d="M12 2.66675C10.0953 4.32975 9.43 5.33375 10.0043 5.67908C10.8657 6.19742 11.231 5.46775 12.2823 5.67908C13.3333 5.89042 13.1057 7.31541 12.553 7.31541C12 7.31541 9.13667 6.95075 9.281 8.62175C9.425 10.2927 11.1477 10.5401 11.1477 11.4737C11.1477 12.0961 10.7663 13.0487 10.0043 14.3314M2.03467 10.9754C2.26189 10.8755 2.49035 10.7783 2.72 10.6841C4.00233 10.1661 4.954 10.0441 5.57467 10.3177C6.672 10.8021 6.25 11.7801 6.594 12.1404C6.93733 12.5007 7.796 12.3961 7.796 13.0814C7.796 13.5384 7.64267 14.0547 7.33533 14.6301" stroke="#475467" stroke-linecap="round"/>
</g>
<defs>
<clipPath id="clip0_0_1727">
<rect width="16" height="16" fill="white"/>
</clipPath>
</defs>
</svg>
